<svg width="105" height="24" viewBox="0 0 105 24" fill="none" xmlns="http://www.w3.org/2000/svg">
<path d="M37.8574 18.4711V4.30953C37.8574 4.09412 38.0329 3.9209 38.2461 3.9209H49.0233C49.4208 3.9209 49.7428 4.2429 49.7428 4.64042V5.36437C49.7428 5.76189 49.4208 6.08389 49.0233 6.08389H40.6555C40.4401 6.08389 40.2669 6.25933 40.2669 6.47252V10.3322C40.2669 10.5476 40.4424 10.7208 40.6555 10.7208H48.6902C49.0877 10.7208 49.4097 11.0428 49.4097 11.4403V12.142C49.4097 12.5396 49.0877 12.8616 48.6902 12.8616H40.6555C40.4401 12.8616 40.2669 13.037 40.2669 13.2502V18.4689C40.2669 18.6843 40.0915 18.8575 39.8783 18.8575H38.2483C38.0329 18.8598 37.8574 18.6865 37.8574 18.4711Z" fill="white"/>
<path d="M51.5254 5.85667V4.54422C51.5254 4.19778 51.8052 3.91797 52.1516 3.91797H53.3086C53.6551 3.91797 53.9349 4.19778 53.9349 4.54422V5.85667C53.9349 6.2031 53.6551 6.48291 53.3086 6.48291H52.1516C51.8052 6.48291 51.5254 6.2031 51.5254 5.85667ZM51.5254 18.6348V8.40163C51.5254 8.05519 51.8052 7.77538 52.1516 7.77538H53.3086C53.6551 7.77538 53.9349 8.05519 53.9349 8.40163V18.6325C53.9349 18.7569 53.8327 18.8591 53.7084 18.8591H51.7519C51.6275 18.8591 51.5254 18.7591 51.5254 18.6348Z" fill="white"/>
<path d="M56.166 18.5308V8.10667C56.166 7.92457 56.3126 7.778 56.4947 7.778H58.0448C58.2269 7.778 58.3734 7.92457 58.3734 8.10667V11.2113H58.5289C58.862 9.33696 60.3343 7.55371 63.1458 7.55371C66.2237 7.55371 67.7405 9.62787 67.7405 12.1928V18.5308C67.7405 18.7129 67.5939 18.8595 67.4118 18.8595H65.6619C65.4798 18.8595 65.3332 18.7129 65.3332 18.5308V12.8391C65.3332 10.7649 64.3961 9.7167 62.0998 9.7167C59.6681 9.7167 58.5755 10.9648 58.5755 13.3743V18.5308C58.5755 18.7129 58.4289 18.8595 58.2468 18.8595H56.4969C56.3126 18.8595 56.166 18.7129 56.166 18.5308Z" fill="white"/>
<path d="M73.2726 18.6303L68.4691 8.34168C68.347 8.07741 68.538 7.77539 68.8289 7.77539H70.6033C70.7587 7.77539 70.9008 7.86644 70.9652 8.00857L74.8071 16.5162H74.9848L78.8266 8.00857C78.891 7.86644 79.0332 7.77539 79.1886 7.77539H80.9163C81.2073 7.77539 81.4005 8.07741 81.2761 8.34168L76.4327 18.6303C76.3661 18.7702 76.2262 18.8591 76.0729 18.8591H73.6346C73.4791 18.8591 73.3392 18.7702 73.2726 18.6303Z" fill="white"/>
<path d="M81.6543 13.3298C81.6543 9.87438 84.0172 7.55371 87.6303 7.55371C91.0658 7.55371 93.4064 9.45022 93.4064 12.8168C93.4064 13.0944 93.3953 13.3298 93.3664 13.5608C93.3442 13.734 93.1999 13.865 93.0245 13.865H84.2748C84.0749 13.865 83.9106 14.036 83.9305 14.2337C84.1238 16.1368 85.1941 17.1428 87.6059 17.1428C89.9265 17.1428 90.8837 16.3856 90.8837 15.0687V14.891H93.2909V15.0909C93.2909 17.4537 90.9725 19.0815 87.6703 19.0815C84.0416 19.0838 81.6543 17.0318 81.6543 13.3298ZM83.9727 12.124C83.9417 12.3349 84.0993 12.5259 84.3125 12.5259H91.1346V12.4815C91.1346 10.4296 89.9532 9.448 87.5881 9.448C85.3052 9.45022 84.2192 10.394 83.9727 12.124Z" fill="white"/>
<path d="M95.2148 18.5663V8.07114C95.2148 7.90903 95.3459 7.778 95.508 7.778H97.1269C97.289 7.778 97.42 7.90903 97.42 8.07114V10.7649H97.5755C97.9086 8.98164 99.1144 7.55371 101.388 7.55371C103.909 7.55371 105.002 9.35917 105.002 11.4555V12.6103C105.002 12.7724 104.871 12.9035 104.708 12.9035H102.91C102.748 12.9035 102.617 12.7724 102.617 12.6103V11.9241C102.617 10.3407 101.948 9.60567 100.298 9.60567C98.4016 9.60567 97.6221 10.6539 97.6221 12.6392V18.5663C97.6221 18.7284 97.4911 18.8595 97.329 18.8595H95.5102C95.3459 18.8595 95.2148 18.7284 95.2148 18.5663Z" fill="white"/>
<path d="M2.95357 0.53125C1.32134 0.53125 0 1.85259 0 3.48482V20.6178C0 22.2478 1.32134 23.5714 2.95357 23.5714C3.41993 23.5714 3.79745 23.1938 3.79745 22.7275V1.37513C3.79745 0.908775 3.41993 0.53125 2.95357 0.53125Z" fill="white"/>
<path d="M11.9899 0.53125H10.4531C8.47446 0.53125 6.87109 2.13462 6.87109 4.11329V19.9871C6.87109 21.9658 8.47446 23.5691 10.4531 23.5691H11.9899C12.5562 23.5691 13.0136 23.1117 13.0136 22.5454V1.55501C13.0136 0.988721 12.5539 0.53125 11.9899 0.53125Z" fill="white"/>
<path d="M25.0002 0.53125H19.666C17.6874 0.53125 16.084 2.13462 16.084 4.11329V19.9871C16.084 21.9658 17.6874 23.5691 19.666 23.5691H25.0002C25.5665 23.5691 26.024 23.1117 26.024 22.5454V1.55501C26.024 0.988721 25.5665 0.53125 25.0002 0.53125Z" fill="white"/>
<path d="M28.4736 2.84349V1.24456H27.7363V0.973633H29.5063V1.24456H28.7712V2.84349H28.4736Z" fill="white"/>
<path d="M29.6836 2.84349V0.973633H30.0944L30.6341 2.05735L30.8051 2.44598H30.8273L30.9916 2.05735L31.5246 0.973633H31.9354V2.84349H31.6334V1.69537L31.6445 1.42444H31.6223L31.5068 1.69537L30.9894 2.73023H30.6274L30.11 1.69537L29.9945 1.42444H29.9723L29.9834 1.69537V2.84349H29.6836Z" fill="white"/>
</svg>
