<svg width="698" height="1024" viewBox="0 0 698 1024" fill="none" xmlns="http://www.w3.org/2000/svg">
<rect width="698" height="1024" fill="url(#paint0_linear_2056_6536)"/>
<g style="mix-blend-mode:soft-light" opacity="0.1" clip-path="url(#clip0_2056_6536)">
<rect width="698" height="1028" transform="translate(0 -4)" fill="white"/>
<mask id="mask0_2056_6536" style="mask-type:alpha" maskUnits="userSpaceOnUse" x="-111" y="-43" width="1600" height="1200">
<path d="M-111 -43H1489V1157H-111V-43Z" fill="#E6E9F3"/>
</mask>
<g mask="url(#mask0_2056_6536)">
<path d="M286.25 880.558C462.849 1042.29 714.421 1006.79 894.175 817.537C1073.93 628.283 1037.88 332.175 829.424 209.794C620.963 87.4136 391.096 91.7645 221.499 272.815C51.901 453.865 109.652 718.83 286.25 880.558Z" fill="#EFF3F0"/>
<path d="M60.945 274.697C155.478 351.248 283.844 333.928 357.006 243.58C430.168 153.232 418.363 3.9058 325.889 -52.4812C233.415 -108.868 97.2182 -130.331 29.8277 -21.3639C-37.5628 87.6034 -33.5875 198.146 60.945 274.697Z" fill="#E0436B"/>
<path d="M351.019 965.216C381.002 989.496 421.725 983.992 444.941 955.322C468.157 926.653 464.423 879.278 435.091 861.396C405.76 843.513 362.556 836.714 341.169 871.29C319.783 905.866 321.036 940.937 351.019 965.216Z" fill="#E0436B"/>
<path d="M-52.5694 -6.70869C-32.8791 9.23618 -6.13567 5.62122 9.11064 -13.2064C24.357 -32.034 21.9048 -63.1458 2.64237 -74.8896C-16.6201 -86.6334 -44.9929 -91.0986 -59.0377 -68.3919C-73.0825 -45.6851 -72.2597 -22.6536 -52.5694 -6.70869Z" fill="#E0436B"/>
<path d="M485.076 875.935C473.707 880.19 469.521 892.369 473.932 904.843C478.343 917.318 492.547 922.504 502.872 915.905C513.197 909.306 518.29 898.824 514.016 886.997C509.742 875.17 496.445 871.681 485.076 875.935Z" fill="#E0436B"/>
<path d="M409.431 277.291C429.121 293.236 455.864 289.621 471.111 270.794C486.357 251.966 483.905 220.854 464.642 209.11C445.38 197.367 417.007 192.901 402.962 215.608C388.918 238.315 389.74 261.346 409.431 277.291Z" fill="#7252A4"/>
<path d="M497.47 281.587C506.42 288.834 518.576 287.191 525.506 278.633C532.436 270.075 531.322 255.933 522.566 250.595C513.81 245.257 500.914 243.228 494.53 253.549C488.146 263.87 488.52 274.339 497.47 281.587Z" fill="#7252A4"/>
<path d="M245.762 706.255C317.783 772.212 420.38 757.736 493.689 680.553C566.997 603.369 552.298 482.609 467.283 432.7C382.268 382.79 288.523 384.565 219.356 458.403C150.19 532.24 173.741 640.299 245.762 706.255Z" fill="#F0C933"/>
<path d="M473.174 753.06C482.126 761.258 494.879 759.459 503.991 749.866C513.103 740.272 511.276 725.262 500.709 719.058C490.141 712.855 478.489 713.075 469.892 722.253C461.295 731.431 464.222 744.862 473.174 753.06Z" fill="#F0C933"/>
<path d="M507.088 698.53C511.564 702.629 517.94 701.729 522.496 696.933C527.052 692.136 526.139 684.631 520.855 681.529C515.572 678.427 509.746 678.537 505.447 683.126C501.148 687.715 502.612 694.431 507.088 698.53Z" fill="#F0C933"/>
<path d="M25.1744 376.06C34.1264 384.258 46.8789 382.459 55.9909 372.866C65.1028 363.272 63.2757 348.262 52.7085 342.058C42.1414 335.855 30.4892 336.075 21.892 345.253C13.2949 354.431 16.2224 367.862 25.1744 376.06Z" fill="#453264"/>
<path d="M-165.132 1233.31C-58.469 1319.69 111.789 1299.71 220.628 1193.12C329.467 1086.54 314.359 896.536 179.735 807.435C45.1118 718.334 -110.793 730.022 -206.025 847.625C-301.258 965.227 -271.796 1146.94 -165.132 1233.31Z" fill="#0F90D1"/>
<path d="M-322.854 897.32C-221.941 989.736 -78.1852 969.454 24.5315 861.309C127.248 753.163 106.651 583.959 -12.4694 514.027C-131.59 444.095 -262.942 446.581 -359.855 550.039C-456.768 653.496 -423.768 804.904 -322.854 897.32Z" fill="#C4C8D4"/>
<path d="M972.927 -372.317C1059.41 -302.283 1072.75 -175.399 1002.71 -88.914C932.68 -2.42899 840.222 91.0895 782.452 183.087C724.681 275.085 577.025 293.359 499.049 212.874C421.072 132.389 391.162 25.916 469.262 -70.529C547.361 -166.974 612.781 -247.761 689.524 -342.53C766.267 -437.299 886.442 -442.351 972.927 -372.317Z" fill="#6759AE"/>
</g>
</g>
<defs>
<linearGradient id="paint0_linear_2056_6536" x1="225.881" y1="813.613" x2="1513.91" y2="-2335.36" gradientUnits="userSpaceOnUse">
<stop offset="0.125" stop-color="#443DF6"/>
<stop offset="1" stop-color="#443DF6" stop-opacity="0"/>
</linearGradient>
<clipPath id="clip0_2056_6536">
<rect width="698" height="1028" fill="white" transform="translate(0 -4)"/>
</clipPath>
</defs>
</svg>
